HIERARCHY
ROOT hip
{
	OFFSET 0.000000 0.000000 0.000000
	CHANNELS 6 Xposition Yposition Zposition Xrotation Zrotation Yrotation 
	JOINT abdomen
	{
		OFFSET 0.000000 3.422050 0.000000
		CHANNELS 3 Xrotation Zrotation Yrotation 
		JOINT chest
		{
			OFFSET 0.000000 8.486693 -0.684411
			CHANNELS 3 Xrotation Zrotation Yrotation 
			JOINT neck
			{
				OFFSET 0.000000 10.266162 -0.273764
				CHANNELS 3 Xrotation Zrotation Yrotation 
				JOINT head
				{
					OFFSET 0.000000 3.148285 0.000000
					CHANNELS 3 Xrotation Zrotation Yrotation 
					End Site
					{
						OFFSET 0.000000 3.148289 0.000000
					}
				}
			}
			JOINT lCollar
			{
				OFFSET 3.422053 6.707223 -0.821293
				CHANNELS 3 Yrotation Zrotation Xrotation 
				JOINT lShldr
				{
					OFFSET 3.285171 0.000000 0.000000
					CHANNELS 3 Zrotation Yrotation Xrotation 
					JOINT lForeArm
					{
						OFFSET 10.129278 0.000000 0.000000
						CHANNELS 3 Yrotation Zrotation Xrotation 
						JOINT lHand
						{
							OFFSET 8.486692 0.000000 0.000000
							CHANNELS 3 Zrotation Yrotation Xrotation 
							End Site
							{
								OFFSET 4.106464 0.000000 0.000000
							}
						}
					}
				}
			}
			JOINT rCollar
			{
				OFFSET -3.558935 6.707223 -0.821293
				CHANNELS 3 Yrotation Zrotation Xrotation 
				JOINT rShldr
				{
					OFFSET -3.148289 0.000000 0.000000
					CHANNELS 3 Zrotation Yrotation Xrotation 
					JOINT rForeArm
					{
						OFFSET -10.266159 0.000000 0.000000
						CHANNELS 3 Yrotation Zrotation Xrotation 
						JOINT rHand
						{
							OFFSET -8.349810 0.000000 0.000000
							CHANNELS 3 Zrotation Yrotation Xrotation 
							End Site
							{
								OFFSET -4.106464 0.000000 0.000000
							}
						}
					}
				}
			}
		}
	}
	JOINT lThigh
	{
		OFFSET 5.338403 -1.642589 1.368821
		CHANNELS 3 Xrotation Zrotation Yrotation 
		JOINT lShin
		{
			OFFSET -2.053232 -20.121670 0.000000
			CHANNELS 3 Xrotation Zrotation Yrotation 
			JOINT lFoot
			{
				OFFSET 0.000000 -19.300380 -1.231939
				CHANNELS 3 Xrotation Yrotation Zrotation 
				End Site
				{
					OFFSET 0.000000 -2.463878 4.653993
				}
			}
		}
	}
	JOINT rThigh
	{
		OFFSET -5.338403 -1.642589 1.368821
		CHANNELS 3 Xrotation Zrotation Yrotation 
		JOINT rShin
		{
			OFFSET 2.053232 -20.121670 0.000000
			CHANNELS 3 Xrotation Zrotation Yrotation 
			JOINT rFoot
			{
				OFFSET 0.000000 -19.300380 -1.231939
				CHANNELS 3 Xrotation Yrotation Zrotation 
				End Site
				{
					OFFSET 0.000000 -2.463878 4.653993
				}
			}
		}
	}
}
MOTION
Frames: 14
Frame Time: 0.049989
0.000000 13.417293 30.972179 -71.009506 -0.004270 -179.996964 17.291811 0.217691 -0.001816 -29.775257 -0.002932 0.327922 -1.744209 0.000000 0.000000 2.056661 -0.054202 -0.000974 -26.335464 11.217294 38.979546 17.948437 -14.206446 -107.813599 -86.921021 -0.781125 -33.016487 -16.715609 -29.596319 25.574163 26.212275 -11.075986 38.909904 -17.955420 14.183023 -107.812988 86.867134 0.749564 -33.014229 16.683769 29.574165 25.567083 -104.551575 34.689205 -28.141708 132.413406 -2.387721 -0.183749 17.538521 1.748983 4.872131 -104.547165 -30.798464 28.131840 132.411514 2.357231 0.166560 17.531727 -1.737534 -4.891653 
0.000000 13.388519 31.050909 -71.009506 -0.004270 -179.996964 17.922741 0.217769 -0.001919 -30.275209 -0.002943 0.327982 -2.480006 0.000000 0.000000 1.456901 -0.054212 -0.000691 -26.329700 12.172350 38.444103 17.707928 -13.923498 -107.792648 -86.387108 -0.616664 -33.010727 -16.448927 -29.537733 24.801634 26.209579 -12.040414 38.377663 -17.714430 13.905712 -107.792427 86.335098 0.586059 -33.008209 16.236450 29.465731 24.809124 -105.098640 34.380596 -28.277782 132.413406 -2.387721 -0.183749 17.538521 1.748983 4.872131 -105.085312 -30.595137 28.256374 132.411514 2.357231 0.166560 17.531727 -1.737534 -4.891653 
0.000000 13.359746 31.129639 -71.009506 -0.004270 -179.996964 18.553951 0.217849 -0.002022 -30.775221 -0.002953 0.328041 -3.216259 0.000000 0.000000 0.857043 -0.054218 -0.000407 -26.314739 13.127840 37.906261 17.467798 -13.640449 -107.772911 -85.853188 -0.452129 -33.006516 -16.183273 -29.476006 24.029715 26.197657 -13.005303 37.843060 -17.473814 13.628304 -107.773079 85.803032 0.422487 -33.003712 15.791083 29.352114 24.052607 -105.643051 34.070827 -28.409853 132.413406 -2.387721 -0.183749 17.538521 1.748983 4.872131 -105.621964 -30.390739 28.378454 132.411514 2.357231 0.166560 17.531727 -1.737534 -4.891653 
0.000000 13.330974 31.208368 -71.009506 -0.004270 -179.996964 19.185421 0.217929 -0.002124 -31.275263 -0.002964 0.328100 -3.952907 0.000000 0.000000 0.257119 -0.054222 -0.000123 -26.290462 14.083495 37.365791 17.228043 -13.357308 -107.754417 -85.319191 -0.287545 -33.003819 -15.918726 -29.411160 23.258501 26.176411 -13.970406 37.305904 -17.233568 13.350811 -107.754974 85.270920 0.258862 -33.000729 15.347776 29.233318 23.297640 -106.184769 33.759926 -28.537935 132.413406 -2.387721 -0.183749 17.538521 1.748983 4.872131 -106.157143 -30.185314 28.498095 132.411514 2.357231 0.166560 17.531727 -1.737534 -4.891653 
0.000000 13.302200 31.287096 -71.009506 -0.004270 -179.996964 19.817099 0.218011 -0.002225 -31.775331 -0.002973 0.328160 -4.689893 0.000000 0.000000 -0.342838 -0.054223 0.000161 -26.256735 15.039058 36.822453 16.988657 -13.074091 -107.737175 -84.785210 -0.122936 -33.002666 -15.655360 -29.343218 22.488092 26.145700 -14.935449 36.765934 -16.993671 13.073235 -107.738052 84.738808 0.095209 -32.999275 14.906659 29.109409 22.544353 -106.723846 33.447937 -28.662048 132.413406 -2.387721 -0.183749 17.538521 1.748983 4.872131 -106.690865 -29.978893 28.615301 132.411514 2.357231 0.166560 17.531727 -1.737534 -4.891653 
0.000000 13.273427 31.365826 -71.009506 -0.004270 -179.996964 20.448946 0.218095 -0.002325 -32.275406 -0.002982 0.328220 -5.427152 0.000000 0.000000 -0.942795 -0.054220 0.000445 -26.213430 15.994267 36.276001 16.749626 -12.790804 -107.721161 -84.251244 0.041676 -33.003056 -15.393247 -29.272203 21.718578 26.105389 -15.900162 36.222919 -16.754129 12.795593 -107.722359 84.206696 -0.068448 -32.999336 14.467845 28.980412 21.792870 -107.260330 33.134945 -28.782253 132.413406 -2.387721 -0.183749 17.538521 1.748983 4.872131 -107.223053 -29.771486 28.730053 132.411514 2.357231 0.166560 17.531727 -1.737534 -4.891653 
0.000000 13.244654 31.444555 -71.009506 -0.004270 -179.996964 21.080935 0.218179 -0.002424 -32.775452 -0.002991 0.328279 -6.164624 0.000000 0.000000 -1.542719 -0.054215 0.000729 -26.160397 16.948856 35.726200 16.510950 -12.507463 -107.706375 -83.717285 0.206270 -33.004971 -15.132452 -29.198130 20.950039 26.055342 -16.864292 35.676601 -16.514935 12.517900 -107.707878 83.674606 -0.232092 -33.000912 14.031451 28.846365 21.043308 -107.794212 32.820957 -28.898544 132.413406 -2.387721 -0.183749 17.538521 1.748983 4.872131 -107.753754 -29.563143 28.842373 132.411514 2.357231 0.166560 17.531727 -1.737534 -4.891653 
0.000000 13.215880 31.523285 -71.009506 -0.004270 -179.996964 21.713017 0.218264 -0.002523 -33.275459 -0.002999 0.328339 -6.902250 0.000000 0.000000 -2.142578 -0.054207 0.001013 -26.097488 17.902567 35.172794 16.272617 -12.224074 -107.692810 -83.183342 0.370821 -33.008408 -14.873044 -29.121021 20.182564 25.995394 -17.827553 35.126717 -16.276075 12.240160 -107.694603 83.142540 -0.395695 -33.004005 13.597589 28.707314 20.295778 -108.325531 32.506054 -29.010979 132.413406 -2.387721 -0.183749 17.538521 1.748983 4.872131 -108.282951 -29.353876 28.952250 132.411514 2.357231 0.166560 17.531727 -1.737534 -4.891653 
0.000000 13.187107 31.602015 -71.009506 -0.004270 -179.996964 22.345156 0.218351 -0.002620 -33.775414 -0.003007 0.328399 -7.639968 0.000000 0.000000 -2.742337 -0.054196 0.001297 -26.024546 18.855127 34.615520 16.034616 -11.940651 -107.680458 -82.649483 0.535311 -33.013393 -14.615095 -29.040903 19.416252 25.925396 -18.789690 34.573017 -16.037542 11.962385 -107.682503 82.610565 -0.559246 -33.008633 13.166371 28.563313 19.550406 -108.854309 32.190247 -29.119566 132.413406 -2.387721 -0.183749 17.538521 1.748983 4.872131 -108.810654 -29.143728 29.059692 132.411514 2.357231 0.166560 17.531727 -1.737534 -4.891653 
0.000000 13.158335 31.680744 -71.009506 -0.004270 -179.996964 22.977316 0.218438 -0.002716 -34.275295 -0.003014 0.328459 -8.377716 0.000000 0.000000 -3.341966 -0.054181 0.001581 -25.941395 19.806273 34.054108 15.796946 -11.657204 -107.669334 -82.115685 0.699717 -33.019905 -14.358669 -28.957804 18.651180 25.845177 -19.750431 34.015232 -15.799328 11.684584 -107.671600 82.078621 -0.722712 -33.014759 12.737900 28.414392 18.807289 -109.380569 31.873608 -29.224352 132.413406 -2.387721 -0.183749 17.538521 1.748983 4.872131 -109.336838 -28.932722 29.164709 132.411514 2.357231 0.166560 17.531727 -1.737534 -4.891653 
0.000000 13.129561 31.759474 -71.009506 -0.004270 -179.996964 23.609447 0.218526 -0.002812 -33.975311 -0.002870 0.328153 -9.115436 0.000000 0.000000 -5.446468 -0.054281 0.001219 -24.990248 20.338446 32.903042 15.888417 -11.748881 -107.680298 -82.405472 0.628359 -33.016514 -13.749125 -28.753981 17.924433 24.903299 -20.290606 32.869408 -15.892035 11.773339 -107.682152 82.367714 -0.652135 -33.011841 12.312284 28.260618 18.066542 -109.904320 31.556168 -29.325342 132.413406 -2.387721 -0.183749 17.538521 1.748983 4.872131 -109.861473 -28.720881 29.267282 132.411514 2.357231 0.166560 17.531727 -1.737534 -4.891653 
0.000000 13.100788 31.838203 -71.009506 -0.004270 -179.996964 24.241537 0.218616 -0.002906 -33.675316 -0.002725 0.327849 -9.853059 0.000000 0.000000 -7.555979 -0.054395 0.000860 -24.023664 20.852930 31.737608 15.979939 -11.840541 -107.691414 -82.695236 0.556983 -33.013485 -13.143609 -28.543360 17.201431 23.945879 -20.813356 31.709171 -15.984789 11.862077 -107.692856 82.656799 -0.581537 -33.009285 11.889622 28.102039 17.328270 -110.425636 31.237993 -29.422607 132.413406 -2.387721 -0.183749 17.538521 1.748983 4.872131 -110.384613 -28.508245 29.367441 132.411514 2.357231 0.166560 17.531727 -1.737534 -4.891653 
0.000000 13.072015 31.916933 -71.009506 -0.004270 -179.996964 24.873518 0.218707 -0.003000 -33.375294 -0.002579 0.327545 -10.590532 0.000000 0.000000 -9.669081 -0.054522 0.000504 -23.042093 21.349131 30.558268 16.071505 -11.932183 -107.702675 -82.985046 0.485588 -33.010822 -12.542266 -28.326025 16.482317 22.973330 -21.318075 30.534918 -16.077591 11.950800 -107.703697 82.945892 -0.510927 -33.007072 11.470012 27.938711 16.592571 -110.944504 30.919113 -29.516151 132.413406 -2.387721 -0.183749 17.538521 1.748983 4.872131 -110.906212 -28.294844 29.465178 132.411514 2.357231 0.166560 17.531727 -1.737534 -4.891653 
0.000000 13.043242 31.995663 -71.009506 -0.004270 -179.996964 25.505367 0.218798 -0.003092 -33.075268 -0.002430 0.327242 -11.327794 0.000000 0.000000 -11.784343 -0.054662 0.000154 -22.046013 21.826458 29.365480 16.163122 -12.023808 -107.714081 -83.274818 0.414179 -33.008514 -11.945231 -28.102058 15.767227 21.986118 -21.804176 29.347115 -16.170439 12.039505 -107.714691 83.234993 -0.440303 -33.005219 11.053544 27.770679 15.859542 -111.460960 30.599573 -29.606005 132.413406 -2.387721 -0.183749 17.538521 1.748983 4.872131 -111.426277 -28.080696 29.560499 132.411514 2.357231 0.166560 17.531727 -1.737534 -4.891653 
